<?xml version="1.0" standalone="no"?>
<!DOCTYPE svg PUBLIC "-//W3C//DTD SVG 20010904//EN"
 "http://www.w3.org/TR/2001/REC-SVG-20010904/DTD/svg10.dtd">
<svg version="1.0" xmlns="http://www.w3.org/2000/svg"
 width="1280.000000pt" height="756.000000pt" viewBox="0 0 1280.000000 756.000000"
 preserveAspectRatio="xMidYMid meet">
<metadata>
Created by potrace 1.15, written by Peter Selinger 2001-2017
</metadata>
<g transform="translate(0.000000,756.000000) scale(0.100000,-0.100000)"
fill="#000000" stroke="none">
<path d="M8254 7549 c-18 -5 -39 -20 -48 -34 -9 -13 -30 -38 -46 -55 -17 -17
-30 -33 -30 -35 0 -2 -22 -39 -50 -81 -46 -71 -50 -81 -50 -138 0 -68 24 -280
36 -309 9 -25 50 -40 73 -27 23 12 102 103 175 203 31 42 61 77 66 77 13 0 12
-116 0 -203 -11 -72 -29 -116 -62 -151 -31 -32 -78 -119 -78 -143 0 -12 -4
-23 -9 -25 -5 -1 -20 -26 -34 -54 -24 -47 -28 -50 -57 -46 -17 2 -34 11 -37
19 -9 23 -53 36 -70 21 -31 -25 -90 -42 -145 -41 l-57 1 16 -24 c15 -23 12
-54 -4 -54 -4 0 -19 16 -32 36 -23 33 -27 35 -75 32 -43 -3 -53 -7 -65 -30
-12 -21 -13 -35 -6 -65 6 -23 7 -108 3 -218 -4 -99 -11 -319 -17 -488 -6 -207
-13 -312 -21 -322 -11 -13 -185 -125 -194 -125 -3 0 -6 15 -8 32 -2 24 -10 36
-30 46 -16 7 -28 20 -28 28 0 17 3 16 -127 14 l-103 -2 0 32 c0 18 -9 74 -21
124 -22 96 -42 126 -85 126 -33 0 -324 -224 -411 -317 -28 -29 -30 -79 -8
-185 26 -126 46 -150 108 -134 28 7 127 82 240 181 79 69 91 76 118 70 19 -4
38 -2 52 8 26 17 158 40 180 31 22 -8 -1 -63 -30 -70 -12 -3 -27 -12 -34 -20
-6 -8 -28 -14 -48 -15 -35 0 -100 -29 -173 -77 -30 -19 -36 -30 -42 -72 -5
-38 -13 -53 -34 -68 -44 -31 -260 -162 -267 -162 -4 0 -19 -8 -33 -19 -15 -10
-151 -90 -302 -176 -151 -87 -318 -185 -370 -218 -250 -159 -379 -249 -423
-296 -47 -50 -97 -139 -97 -173 0 -9 -4 -20 -10 -23 -6 -4 -10 9 -10 32 -1 21
-7 49 -14 62 -14 25 -73 51 -119 51 -35 0 -197 -60 -297 -110 -215 -108 -401
-153 -630 -154 -149 -1 -158 0 -245 31 -115 40 -201 90 -259 151 -156 164
-159 167 -223 186 -68 21 -135 25 -200 14 -39 -8 -41 -7 -52 22 -14 40 -100
150 -118 150 -7 0 -36 18 -64 40 -76 60 -221 127 -334 155 -208 52 -846 98
-1062 77 -125 -13 -173 -36 -203 -96 -30 -64 -42 -130 -30 -179 5 -23 10 -45
10 -49 0 -13 -35 -13 -46 0 -15 21 -74 6 -74 -18 0 -12 -11 -22 -32 -29 -75
-23 -275 -65 -307 -63 -20 1 -42 -5 -52 -14 -11 -10 -19 -12 -24 -5 -10 17
-44 13 -79 -8 -17 -10 -64 -24 -104 -31 -69 -13 -79 -12 -148 8 -40 12 -83 22
-94 22 -13 0 -20 7 -20 19 0 10 -7 22 -16 25 -25 10 -94 7 -94 -4 0 -5 -16
-12 -35 -16 -19 -3 -35 -10 -35 -15 0 -14 -52 -11 -81 4 -61 33 -209 26 -209
-10 0 -8 27 -43 60 -77 51 -53 60 -68 60 -99 0 -21 -5 -37 -11 -37 -7 0 -10
-21 -7 -60 2 -42 -1 -60 -9 -60 -28 0 -43 -73 -32 -155 10 -74 27 -115 49
-115 27 0 28 -7 4 -76 -14 -43 -58 -119 -127 -222 -58 -86 -112 -171 -121
-189 l-16 -32 41 -35 c54 -46 254 -186 266 -186 25 0 245 409 277 517 6 17 17
22 64 28 90 10 123 8 177 -9 64 -20 92 -20 135 3 34 19 34 19 90 -9 30 -16 74
-34 98 -41 39 -11 57 -29 30 -29 -7 0 -49 -21 -93 -47 -63 -36 -119 -85 -263
-227 -103 -101 -203 -210 -227 -246 -71 -106 -141 -262 -201 -444 -64 -196
-74 -265 -75 -541 -1 -318 71 -583 233 -855 250 -419 641 -697 1130 -805 100
-22 409 -31 574 -16 224 20 400 72 624 187 114 58 212 128 359 257 156 136
288 307 392 510 l50 97 114 0 c90 0 115 3 115 13 0 17 45 40 85 43 17 1 53 7
80 13 28 7 66 14 85 16 74 9 115 18 127 27 7 5 49 10 95 10 66 1 92 6 130 24
53 27 104 30 161 10 60 -22 74 -40 79 -104 4 -45 14 -72 49 -128 38 -63 49
-73 79 -78 19 -3 45 -3 58 1 13 3 94 0 180 -7 l157 -13 41 -43 c24 -26 53 -46
71 -50 18 -3 34 -13 37 -21 4 -9 13 -12 25 -8 11 3 48 -4 83 -16 59 -21 86
-22 468 -29 452 -7 1396 -5 1508 3 68 5 72 5 72 -15 0 -11 6 -32 14 -46 15
-31 33 -81 48 -133 6 -22 20 -42 35 -50 23 -12 27 -11 44 10 20 25 17 41 -7
41 -11 0 -14 10 -12 35 1 19 5 35 8 35 3 0 40 -38 83 -84 69 -76 75 -85 57
-91 -17 -5 -19 -10 -9 -21 6 -8 17 -14 23 -14 6 0 23 -7 38 -14 25 -13 32 -13
71 10 24 13 51 32 61 43 23 25 11 51 -25 51 -15 0 -44 7 -63 16 -31 16 -34 21
-41 77 -8 74 -11 80 -34 67 -13 -6 -17 -17 -14 -35 3 -14 3 -25 0 -25 -8 0
-107 138 -107 148 0 5 120 12 268 15 147 4 371 11 499 17 127 5 309 10 405 10
208 2 250 8 289 46 32 30 38 75 19 131 -12 32 -151 130 -305 213 -119 64 -246
139 -283 167 -40 30 -52 7 132 253 164 219 162 215 142 245 -8 12 -29 27 -46
33 -30 11 -32 10 -92 -63 -33 -41 -65 -75 -70 -75 -5 0 -7 3 -5 8 3 4 24 38
47 76 23 38 68 116 100 172 49 86 56 105 44 115 -7 6 -11 15 -8 20 10 17 -6
46 -32 57 -52 24 -60 19 -111 -78 -28 -55 -336 -519 -344 -520 -3 0 -26 29
-53 65 l-47 64 21 42 c12 23 39 92 60 153 21 61 66 192 99 290 34 98 87 236
118 305 30 69 77 189 103 266 26 77 71 203 100 279 38 103 51 149 47 175 -5
40 27 111 49 111 8 0 19 10 25 22 7 13 23 31 36 41 13 10 37 46 54 80 33 67
49 89 49 68 0 -43 240 -487 309 -570 21 -25 63 -80 94 -121 31 -41 67 -88 81
-105 l24 -30 -40 -65 c-110 -178 -191 -380 -236 -590 -28 -129 -32 -167 -42
-380 -5 -126 -13 -199 -24 -229 -24 -66 -20 -141 8 -141 7 0 30 15 52 34 21
18 79 66 129 105 l90 73 16 -99 c66 -399 242 -738 525 -1013 125 -121 309
-262 397 -304 172 -80 255 -113 395 -154 l157 -45 200 0 c423 -1 626 54 925
251 129 85 277 226 373 354 161 216 273 519 298 810 26 310 -33 607 -179 896
-236 469 -621 792 -1106 930 l-99 28 69 38 c74 40 124 82 124 102 0 12 -42 27
-190 68 -93 25 -294 46 -448 46 -191 0 -305 -19 -551 -92 -37 -11 -45 -11 -49
0 -2 8 -51 79 -109 159 -58 81 -131 185 -162 232 -32 47 -95 135 -140 196 -79
106 -97 145 -66 145 24 0 95 81 121 139 27 58 80 245 95 330 7 46 16 63 57
105 127 134 138 159 70 170 -118 19 -156 31 -185 62 -35 38 -87 53 -111 31 -9
-8 -37 -18 -62 -22 -129 -21 -304 -123 -360 -211 l-28 -46 -61 90 c-33 50 -84
116 -114 148 -56 62 -147 188 -147 204 0 6 -3 10 -8 10 -4 0 -13 13 -20 28
-16 38 -5 93 20 100 15 4 18 10 13 30 -4 16 0 31 11 43 17 18 16 55 -2 132 -6
25 -4 27 24 27 36 0 47 23 37 73 -9 41 -24 59 -44 53 -26 -8 -54 20 -49 48 4
22 0 27 -31 37 -20 6 -44 18 -53 26 -11 10 -27 13 -42 9 -31 -8 -70 23 -71 55
0 37 -37 36 -73 -2 l-29 -31 -121 53 -121 53 -17 70 c-9 39 -25 80 -35 92 -20
22 -26 79 -9 89 6 3 10 20 10 37 0 17 14 60 30 95 17 34 30 72 30 82 0 35
-160 126 -242 137 l-46 7 -13 -42 c-12 -41 -28 -51 -46 -28 -11 13 38 129 69
164 23 26 56 95 67 140 6 21 19 63 30 93 10 30 22 97 26 148 5 65 11 95 21 99
9 3 14 20 14 44 0 26 5 42 15 45 18 7 38 77 30 103 -3 11 -18 21 -33 24 -15 3
-48 11 -73 17 l-46 11 -5 68 c-6 87 -33 145 -68 148 -14 1 -39 -3 -56 -8z
m-389 -1257 c0 -11 4 -24 8 -28 4 -4 7 -23 7 -43 1 -20 7 -47 15 -61 8 -14 14
-41 15 -60 0 -68 64 -132 150 -151 19 -4 57 -14 83 -21 l49 -13 -22 -20 c-11
-10 -30 -34 -42 -53 -17 -27 -19 -38 -10 -58 11 -22 9 -25 -22 -38 -18 -7 -50
-35 -71 -60 l-39 -47 18 -30 c10 -17 16 -33 13 -35 -2 -3 -43 -20 -91 -39
l-86 -34 2 410 c2 267 6 408 13 406 6 -2 10 -13 10 -25z m622 -229 c1 -20 10
-52 19 -71 8 -18 14 -35 12 -37 -1 -1 -25 2 -51 9 -48 11 -49 12 -43 44 5 36
45 107 54 97 3 -3 7 -22 9 -42z m-297 -665 c77 -71 170 -181 170 -204 0 -7
-16 -24 -36 -39 -32 -24 -35 -32 -33 -69 1 -22 -1 -49 -6 -60 -5 -12 -1 -33
13 -62 12 -24 19 -44 16 -44 -3 0 -34 22 -68 48 -67 54 -232 162 -245 162 -5
0 -39 23 -76 50 -38 28 -75 48 -82 46 -10 -4 -13 11 -13 64 0 81 4 85 116 124
38 13 85 31 104 40 19 8 40 15 47 16 7 0 49 -33 93 -72z m-554 -179 c-3 -17
-6 -46 -6 -63 l0 -31 -97 -18 c-54 -9 -108 -20 -120 -23 -16 -4 -23 -2 -23 7
0 13 223 158 244 159 5 0 6 -14 2 -31z m259 -99 c89 -21 479 -291 454 -314 -2
-2 -18 -7 -36 -10 -26 -6 -32 -4 -38 13 -4 14 -15 21 -30 21 -18 0 -35 15 -65
56 -65 87 -223 192 -317 210 -24 5 -33 12 -33 26 0 15 4 18 18 13 9 -4 31 -11
47 -15z m1679 -1097 c12 -42 36 -188 36 -221 0 -46 -5 -41 -94 90 -59 87 -64
98 -48 107 10 5 24 9 32 9 35 -2 50 3 50 17 0 21 18 19 24 -2z m-687 -133 c18
-32 32 -37 50 -19 6 6 16 8 21 5 15 -9 35 -74 28 -93 -5 -13 -11 -12 -39 9
-17 14 -51 35 -74 48 -46 25 -49 31 -33 61 15 26 26 24 47 -11z m884 -127
c276 -384 336 -471 328 -476 -41 -27 -112 -67 -113 -65 -1 2 -22 30 -47 63
-25 33 -85 118 -134 189 l-88 128 -13 102 c-16 119 -17 159 -5 152 5 -3 37
-45 72 -93z m-977 71 c9 -24 7 -63 -4 -85 -7 -13 -7 -19 -1 -19 14 0 39 -52
34 -68 -4 -9 -18 -11 -51 -6 -26 3 -74 1 -106 -5 -33 -6 -61 -10 -62 -8 -2 1
3 25 10 52 9 39 19 54 44 68 24 14 36 16 45 8 18 -14 58 14 50 34 -5 15 13 45
27 45 4 0 11 -7 14 -16z m501 -130 c92 -130 327 -468 419 -601 l49 -73 -58
-62 c-32 -35 -66 -71 -75 -81 -16 -18 -18 -17 -49 9 -18 15 -56 61 -84 102
-72 104 -207 313 -207 320 0 3 -10 19 -23 36 -13 17 -35 56 -49 86 -92 196
-128 286 -128 316 0 30 5 36 48 58 26 14 52 24 57 22 6 -1 51 -61 100 -132z
m-8577 -76 c19 -19 14 -28 -18 -28 -32 0 -33 1 -24 24 7 19 25 21 42 4z
m10958 -1500 c23 -24 48 -54 58 -68 20 -30 21 -69 2 -76 -24 -9 -53 13 -93 72
-21 31 -42 61 -47 68 -13 19 0 46 22 46 10 0 36 -19 58 -42z m-88 -66 c21 -14
62 -75 62 -93 0 -12 -14 -19 -52 -27 -29 -5 -55 -9 -57 -7 -2 2 2 18 8 36 6
18 11 47 11 65 0 35 5 40 28 26z m-2911 -154 c-43 -83 -60 -99 -80 -79 -9 9
-4 27 21 75 42 82 69 111 87 96 12 -10 7 -26 -28 -92z m2988 -43 c0 -27 -123
-94 -136 -74 -7 12 -2 67 7 78 6 7 78 19 104 18 18 -2 25 -8 25 -22z m157 -42
c15 -13 18 -31 18 -99 0 -74 -2 -85 -21 -94 -37 -21 -46 -7 -53 90 -9 114 9
146 56 103z m-103 -37 c7 -8 11 -37 9 -68 -4 -65 -16 -69 -94 -37 -71 30 -70
52 5 91 62 32 65 33 80 14z m-2985 -35 c12 -19 -104 -168 -122 -157 -21 13
-13 31 38 100 47 62 71 78 84 57z m-207 -52 c8 -8 3 -24 -19 -60 -32 -53 -39
-57 -57 -35 -10 11 -9 22 5 48 30 59 47 71 71 47z m3093 -74 c76 -39 67 -55
-30 -55 -86 0 -90 3 -70 54 12 33 36 33 100 1z m412 -237 c-31 -152 -147 -368
-198 -368 -7 0 -29 14 -48 31 l-35 30 76 72 c100 95 168 207 200 331 16 63 18
66 21 34 2 -19 -6 -78 -16 -130z m-379 115 c14 -8 7 -29 -24 -66 -42 -51 -63
-48 -94 13 -14 28 -23 55 -19 61 6 10 118 4 137 -8z m-10205 -5 c12 -15 103
-290 97 -296 -8 -9 -45 21 -89 72 -78 92 -91 132 -62 201 15 36 36 44 54 23z
m8979 -37 c17 -27 80 -37 103 -16 20 19 15 24 99 -101 121 -182 302 -312 509
-365 54 -14 110 -19 198 -19 l122 0 61 -51 c88 -73 85 -90 -21 -124 -206 -65
-423 -52 -627 37 -127 56 -230 125 -322 218 -87 87 -139 160 -198 278 -51 101
-51 130 -1 148 49 18 63 17 77 -5z m1331 7 c20 -20 14 -48 -23 -98 -42 -57
-79 -83 -105 -75 -36 12 -26 61 25 117 25 28 45 54 45 59 0 13 44 11 58 -3z
m-788 -123 c14 -8 35 -14 48 -15 12 0 42 -18 65 -39 33 -31 39 -42 30 -52 -16
-16 -89 11 -146 55 -63 48 -61 88 3 51z m-8776 -289 c100 1 115 -1 95 -11 -27
-14 -109 -28 -152 -27 -33 1 -97 30 -97 44 0 6 7 7 18 2 9 -5 71 -8 136 -8z"/>
</g>
</svg>
