<?xml version="1.0" standalone="no"?>
<!DOCTYPE svg PUBLIC "-//W3C//DTD SVG 20010904//EN"
 "http://www.w3.org/TR/2001/REC-SVG-20010904/DTD/svg10.dtd">
<svg version="1.0" xmlns="http://www.w3.org/2000/svg"
 width="1280.000000pt" height="640.000000pt" viewBox="0 0 1280.000000 640.000000"
 preserveAspectRatio="xMidYMid meet">
<metadata>
Created by potrace 1.15, written by Peter Selinger 2001-2017
</metadata>
<g transform="translate(0.000000,640.000000) scale(0.100000,-0.100000)"
fill="#000000" stroke="none">
<path d="M4235 5299 c-187 -12 -354 -28 -555 -55 -671 -89 -859 -155 -2007
-705 l-392 -188 -438 -56 c-241 -31 -455 -61 -475 -66 -88 -23 -148 -157 -183
-409 -16 -117 -35 -427 -35 -595 l-1 -110 -32 -20 c-39 -25 -71 -80 -91 -159
-14 -57 -13 -77 9 -296 l24 -235 -30 -43 -31 -42 22 -45 c27 -57 125 -148 239
-223 l90 -59 273 -37 c150 -21 462 -65 693 -98 231 -34 471 -64 534 -67 l115
-6 12 -50 c7 -27 36 -96 64 -151 197 -392 691 -578 1190 -448 270 70 495 240
598 454 l47 97 186 -5 185 -5 33 42 33 42 337 -6 c185 -3 838 -10 1451 -15
613 -6 1543 -15 2065 -20 934 -10 952 -10 1065 10 63 11 124 22 135 25 17 3
29 -10 65 -73 53 -90 185 -229 279 -292 270 -181 643 -244 952 -159 235 64
435 219 545 421 l39 72 135 33 c95 23 254 47 540 82 l405 49 216 88 216 87 6
211 c3 126 12 249 22 306 28 157 7 286 -52 313 -15 7 -27 24 -33 51 -45 176
-182 437 -288 548 -144 151 -827 325 -1798 457 -321 44 -655 82 -929 106
l-179 15 -176 104 c-313 186 -695 393 -1067 579 -334 167 -765 368 -843 392
-265 83 -655 134 -1175 155 -288 11 -1831 11 -2010 -1z m1300 -191 c31 -136
165 -940 160 -965 -7 -39 -44 -70 -93 -79 -20 -4 -257 1 -526 10 -601 20
-1090 38 -1093 40 -5 4 -104 888 -100 893 18 17 322 64 572 88 236 22 462 32
792 34 l283 1 5 -22z m942 -13 c216 -18 351 -37 489 -69 430 -98 836 -295
1221 -594 46 -35 85 -66 87 -70 2 -4 -24 -7 -58 -8 -202 -2 -305 -242 -157
-367 l33 -27 -27 0 c-14 0 -135 5 -268 10 -133 6 -503 22 -822 35 -363 15
-594 29 -618 37 -53 17 -121 79 -142 130 -16 40 -239 671 -306 867 l-29 84
213 -7 c116 -4 289 -14 384 -21z m-2673 -142 c3 -21 26 -209 51 -418 25 -209
46 -389 48 -400 2 -18 -3 -20 -68 -17 -38 1 -216 7 -395 12 -179 6 -348 15
-377 21 -93 18 -163 86 -203 196 -54 151 12 241 288 395 161 90 391 182 592
237 55 15 58 13 64 -26z m-3343 -833 c114 -78 161 -144 194 -270 20 -78 30
-273 21 -401 l-8 -97 -219 -7 c-121 -4 -222 -5 -224 -3 -3 2 0 95 5 207 15
324 50 492 117 570 19 23 39 41 44 41 6 0 37 -18 70 -40z m3348 -374 c7 -8 11
-30 9 -48 -5 -55 -24 -59 -275 -56 -243 3 -255 6 -255 62 0 55 4 56 267 56
198 0 245 -3 254 -14z m2895 -72 c20 -19 20 -54 2 -80 -13 -18 -30 -19 -233
-22 -134 -2 -229 1 -246 7 -40 15 -54 53 -33 86 l16 25 240 0 c204 0 241 -2
254 -16z m5607 -340 c32 -31 76 -80 98 -108 41 -53 131 -204 131 -220 0 -9
-876 -3 -886 6 -7 8 132 292 152 309 39 33 69 41 212 54 244 21 225 23 293
-41z m-1734 -507 c185 -63 324 -182 406 -347 62 -125 81 -213 74 -350 -6 -114
-28 -195 -78 -290 -156 -295 -506 -438 -824 -336 -109 35 -196 88 -279 172
-83 82 -136 168 -173 279 -23 70 -27 96 -27 210 0 114 4 140 27 210 78 237
273 415 512 469 102 23 268 15 362 -17z m-7473 -77 c232 -59 416 -233 493
-465 23 -69 27 -98 27 -205 1 -104 -3 -137 -22 -200 -72 -231 -248 -403 -487
-476 -92 -28 -276 -25 -375 5 -300 92 -501 361 -500 673 1 260 153 501 389
618 141 70 323 89 475 50z"/>
</g>
</svg>
